<svg width="600" height="450" viewBox="0 0 800 600" fill="none" xmlns="http://www.w3.org/2000/svg" data-reactroot="">
<path opacity="0.3" fill-rule="evenodd" clip-rule="evenodd" d="M82.416 23H314.31V338.423C314.31 342.575 310.945 345.94 306.793 345.94C303.346 345.94 300.478 343.499 298.759 340.512C296.072 335.842 291.753 332.814 286.883 332.814C282.97 332.814 279.413 334.77 276.772 337.961C273.411 342.023 266.266 345.94 260.993 345.94H253.76C248.487 345.94 241.342 342.023 237.981 337.961C235.34 334.77 231.783 332.814 227.87 332.814C223.957 332.814 220.4 334.77 217.759 337.961C214.397 342.023 207.252 345.94 201.98 345.94H194.746C189.474 345.94 182.329 342.023 178.967 337.961C176.326 334.77 172.769 332.814 168.856 332.814C164.943 332.814 161.386 334.77 158.745 337.961C155.384 342.023 148.239 345.94 142.966 345.94H135.733C130.461 345.94 123.316 342.023 119.954 337.961C117.314 334.77 113.756 332.814 109.843 332.814C104.974 332.814 100.655 335.842 97.9683 340.512C96.2491 343.499 93.3804 345.94 89.9334 345.94C85.7816 345.94 82.416 342.575 82.416 338.423V23Z" fill="#B5CDFB"></path>
<path opacity="0.3" fill-rule="evenodd" clip-rule="evenodd" d="M392.224 23H504.554V345.94C499.281 345.94 492.136 342.023 488.775 337.961C486.134 334.77 482.577 332.814 478.664 332.814C474.751 332.814 471.194 334.77 468.553 337.961C465.191 342.023 458.046 345.94 452.774 345.94H445.541C440.268 345.94 433.123 342.023 429.762 337.961C427.121 334.77 423.564 332.814 419.651 332.814C414.781 332.814 410.463 335.842 407.776 340.512C406.057 343.499 403.188 345.94 399.741 345.94C395.589 345.94 392.224 342.575 392.224 338.423V23Z" fill="#B5CDFB"></path>
<path d="M42.3445 23H542.025V36.3273H42.3445V23Z" fill="#C4B6FF"></path>
<path opacity="0.2" d="M618.233 330.955L671.397 238.385H691.163L711.391 330.955H618.233Z" fill="#7D55FF"></path>
<path opacity="0.3" d="M10 496.317H790V576.811H10V496.317Z" fill="#B5CDFB"></path>
<path d="M658.239 365.522L658.239 554.863L627.709 554.863L627.709 365.522L658.239 365.522Z" fill="#C4B6FF"></path>
<path d="M641.364 365.522L641.364 554.863L627.709 554.863L627.709 365.522L641.364 365.522Z" fill="#7D55FF"></path>
<path d="M740.289 365.522L740.289 554.863L709.759 554.863L709.759 365.522L740.289 365.522Z" fill="#C4B6FF"></path>
<path d="M519.826 264.665H560.784V325.906H519.826V264.665Z" fill="#C4B6FF"></path>
<path d="M554.166 263.586H560.784V322.788H554.166V263.586Z" fill="#7D55FF"></path>
<path d="M465.506 322.788H599.751V330.873H465.506V322.788Z" fill="#C4B6FF"></path>
<path d="M446.537 150.227C446.537 140.25 454.625 132.162 464.602 132.162H637.165C647.142 132.162 655.23 140.25 655.23 150.227V246.295C655.23 256.272 647.142 264.36 637.165 264.36H464.602C454.625 264.36 446.537 256.272 446.537 246.295V150.227Z" fill="#C4B6FF"></path>
<path d="M427.415 149.922C427.415 139.945 435.503 131.857 445.48 131.857H625.052C635.029 131.857 643.117 139.945 643.117 149.922V246.6C643.117 256.577 635.029 264.665 625.052 264.665H445.48C435.503 264.665 427.415 256.577 427.415 246.6V149.922Z" fill="#C4B6FF"></path>
<path d="M427.415 149.922C427.415 139.945 435.503 131.857 445.48 131.857H625.052C635.029 131.857 643.117 139.945 643.117 149.922V246.6C643.117 256.577 635.029 264.665 625.052 264.665H445.48C435.503 264.665 427.415 256.577 427.415 246.6V149.922Z" fill="white" fill-opacity="0.27"></path>
<path d="M432.971 156.29C432.971 146.313 441.059 138.225 451.036 138.225H619.081C629.059 138.225 637.147 146.313 637.147 156.291V240.841C637.147 250.818 629.059 258.906 619.081 258.906H451.036C441.059 258.906 432.971 250.818 432.971 240.841V156.29Z" fill="#B5CDFB"></path>
<path d="M452.316 144.272H618.555V258.906H452.316V144.272Z" fill="white"></path>
<g opacity="0.5">
<path d="M549.211 180.852C549.211 178.274 551.301 176.184 553.879 176.184H598.277C600.855 176.184 602.945 178.274 602.945 180.852C602.945 183.43 600.855 185.519 598.277 185.519H553.879C551.301 185.519 549.211 183.43 549.211 180.852Z" fill="#C4B6FF"></path>
<path d="M549.211 196.357C549.211 193.779 551.301 191.689 553.879 191.689H598.277C600.855 191.689 602.945 193.779 602.945 196.357C602.945 198.935 600.855 201.025 598.277 201.025H553.879C551.301 201.025 549.211 198.935 549.211 196.357Z" fill="#C4B6FF"></path>
<path d="M563.726 213.161C563.726 215.739 561.636 217.829 559.058 217.829C556.48 217.829 554.39 215.739 554.39 213.161C554.39 210.583 556.48 208.493 559.058 208.493C561.636 208.493 563.726 210.583 563.726 213.161Z" fill="#C4B6FF"></path>
<path d="M580.746 213.161C580.746 215.739 578.656 217.829 576.078 217.829C573.5 217.829 571.41 215.739 571.41 213.161C571.41 210.583 573.5 208.493 576.078 208.493C578.656 208.493 580.746 210.583 580.746 213.161Z" fill="#C4B6FF"></path>
<path d="M597.766 213.161C597.766 215.739 595.676 217.829 593.098 217.829C590.52 217.829 588.43 215.739 588.43 213.161C588.43 210.583 590.52 208.493 593.098 208.493C595.676 208.493 597.766 210.583 597.766 213.161Z" fill="#C4B6FF"></path>
<path d="M464.215 155.383C464.215 152.805 466.305 150.715 468.883 150.715H601.08C603.658 150.715 605.747 152.805 605.747 155.383C605.747 157.961 603.658 160.051 601.08 160.051H468.883C466.305 160.051 464.215 157.961 464.215 155.383Z" fill="#C4B6FF"></path>
<path d="M461.973 179.077C461.973 175.087 465.208 171.851 469.199 171.851H534.301C538.292 171.851 541.527 175.087 541.527 179.077V258.906H461.973V179.077Z" fill="#C4B6FF"></path>
<path d="M555.675 227.782H558.059V225.297H555.675V227.782Z" fill="#C4B6FF"></path>
<path d="M563.359 227.782H565.743V225.297H563.359V227.782Z" fill="#C4B6FF"></path>
<path d="M571.043 227.782H573.428V225.297H571.043V227.782Z" fill="#C4B6FF"></path>
<path d="M578.727 227.782H581.112V225.297H578.727V227.782Z" fill="#C4B6FF"></path>
<path d="M586.411 227.782H588.796V225.297H586.411V227.782Z" fill="#C4B6FF"></path>
<path d="M594.096 227.782H596.481V225.297H594.096V227.782Z" fill="#C4B6FF"></path>
<path d="M555.675 234.11H558.059V231.625H555.675V234.11Z" fill="#C4B6FF"></path>
<path d="M563.359 234.11H565.743V231.625H563.359V234.11Z" fill="#C4B6FF"></path>
<path d="M571.043 234.11H573.428V231.625H571.043V234.11Z" fill="#C4B6FF"></path>
<path d="M578.727 234.11H581.112V231.625H578.727V234.11Z" fill="#C4B6FF"></path>
<path d="M586.411 234.11H588.796V231.625H586.411V234.11Z" fill="#C4B6FF"></path>
<path d="M594.096 234.11H596.481V231.625H594.096V234.11Z" fill="#C4B6FF"></path>
<path d="M555.675 240.354H558.059V237.868H555.675V240.354Z" fill="#C4B6FF"></path>
<path d="M563.359 240.354H565.743V237.868H563.359V240.354Z" fill="#C4B6FF"></path>
<path d="M571.043 240.354H573.428V237.868H571.043V240.354Z" fill="#C4B6FF"></path>
<path d="M578.727 240.354H581.112V237.868H578.727V240.354Z" fill="#C4B6FF"></path>
<path d="M586.411 240.354H588.796V237.868H586.411V240.354Z" fill="#C4B6FF"></path>
<path d="M594.096 240.354H596.481V237.868H594.096V240.354Z" fill="#C4B6FF"></path>
</g>
<path d="M590.116 322.788H599.751V333.231H590.116V322.788Z" fill="#7D55FF"></path>
<path d="M723.414 365.522L723.414 554.863L709.759 554.863L709.759 365.522L723.414 365.522Z" fill="#7D55FF"></path>
<path d="M608.696 350.257H757.53V380.787H608.696V350.257Z" fill="#C4B6FF"></path>
<path d="M410.712 365.522L410.712 542.045L380.182 542.045L380.182 365.522L410.712 365.522Z" fill="#C4B6FF"></path>
<path d="M393.366 365.522L393.366 542.045L379.712 542.045L379.712 365.522L393.366 365.522Z" fill="#7D55FF"></path>
<path d="M492.762 365.522L492.762 542.045L462.232 542.045L462.232 365.522L492.762 365.522Z" fill="#C4B6FF"></path>
<path d="M475.416 365.522L475.416 542.045L461.762 542.045L461.762 365.522L475.416 365.522Z" fill="#7D55FF"></path>
<path d="M361.168 350.257H510.003V380.787H361.168V350.257Z" fill="#C4B6FF"></path>
<path d="M361.168 350.257H393.366V380.787H361.168V350.257Z" fill="#7D55FF"></path>
<path d="M608.696 350.257H641.363V380.787H608.696V350.257Z" fill="#7D55FF"></path>
<path d="M325.337 345.94C325.337 337.619 332.083 330.873 340.405 330.873H757.162C765.484 330.873 772.23 337.619 772.23 345.94C772.23 354.262 765.484 361.008 757.162 361.008H340.405C332.083 361.008 325.337 354.262 325.337 345.94Z" fill="#C4B6FF"></path>
<path d="M325.337 345.94C325.337 337.619 332.083 330.873 340.405 330.873H640.163C648.485 330.873 655.231 337.619 655.231 345.94C655.231 354.262 648.485 361.008 640.163 361.008H340.405C332.083 361.008 325.337 354.262 325.337 345.94Z" fill="#7D55FF"></path>
<path d="M348.155 322.788H483.655V330.873H348.155V322.788Z" fill="#C4B6FF"></path>
<path d="M452.812 322.788H483.655V330.873H452.812V322.788Z" fill="#7D55FF"></path>
<path d="M665.678 221.534H680.793V235.875H665.678V221.534Z" fill="#C4B6FF"></path>
<path d="M680.793 221.444H745.545V236.553H680.793V221.444Z" fill="#7D55FF"></path>
<path d="M738.657 235.875L714.321 329.539L708.813 329.539L733.15 235.875L738.657 235.875Z" fill="#C4B6FF"></path>
<path d="M742.812 235.875L718.476 329.539L712.968 329.539L737.305 235.875L742.812 235.875Z" fill="#7D55FF"></path>
<path d="M690.046 323.702C690.046 319.742 693.256 316.531 697.217 316.531H738.374C742.335 316.531 745.545 319.742 745.545 323.702C745.545 327.662 742.335 330.873 738.374 330.873H697.217C693.256 330.873 690.046 327.662 690.046 323.702Z" fill="#7D55FF"></path>
<path d="M692.726 308.756H697.384V316.531H692.726V308.756Z" fill="#C4B6FF"></path>
<path d="M664.832 235.786H695.676V241.293H664.832V235.786Z" fill="#C4B6FF"></path>
<path d="M680.793 235.786H695.676V241.293H680.793V235.786Z" fill="#7D55FF"></path>
<path d="M673.38 323.702C673.38 319.742 676.591 316.531 680.551 316.531H716.282C720.242 316.531 723.452 319.742 723.452 323.702C723.452 327.662 720.242 330.873 716.282 330.873H680.551C676.591 330.873 673.38 327.662 673.38 323.702Z" fill="#C4B6FF"></path>
<path d="M332.412 423.404L332.412 557.084L310.857 557.084L310.857 423.404L332.412 423.404Z" fill="#808D94"></path>
<path d="M320.497 423.404L320.497 557.084L310.857 557.084L310.857 423.404L320.497 423.404Z" fill="#5A6469"></path>
<path d="M157.985 428.522C157.985 418.755 165.903 410.837 175.671 410.837H323.802C333.569 410.837 341.487 418.755 341.487 428.522C341.487 438.29 333.569 446.208 323.802 446.208H175.671C165.903 446.208 157.985 438.29 157.985 428.522Z" fill="#808D94"></path>
<path d="M188.757 422.14L139.038 241.598L206.005 241.598C217.227 241.598 226.942 249.399 229.365 260.357L265.136 422.14L188.757 422.14Z" fill="#808D94"></path>
<path d="M198.775 423.404L198.775 557.084L177.22 557.084L177.22 423.404L198.775 423.404Z" fill="#808D94"></path>
<path d="M184.828 285.85L189.301 292.715L196.166 296.564L190.341 300.205L187.948 307.07L183.476 300.205L176.61 296.356L182.331 292.715L184.828 285.85Z" fill="#5A6469"></path>
<path d="M219.987 286.266L223.939 292.403L229.972 295.732L224.876 298.956L222.691 305.094L218.738 298.956L212.705 295.628L217.802 292.299L219.987 286.266Z" fill="#5A6469"></path>
<path d="M198.142 334.219L202.615 341.084L209.48 344.933L203.759 348.678L201.263 355.439L196.79 348.574L189.925 344.829L195.75 341.084L198.142 334.219Z" fill="#5A6469"></path>
<path d="M233.301 334.635L237.253 340.772L243.39 344.101L238.19 347.429L236.005 353.462L232.156 347.325L226.019 343.997L231.116 340.772L233.301 334.635Z" fill="#5A6469"></path>
<path d="M211.561 382.588L216.034 389.557L222.899 393.302L217.074 397.047L214.681 403.912L210.209 396.943L203.239 393.198L209.064 389.453L211.561 382.588Z" fill="#5A6469"></path>
<path d="M246.72 383.108L250.672 389.141L256.705 392.574L251.608 395.798L249.424 401.831L245.471 395.798L239.334 392.366L244.535 389.141L246.72 383.108Z" fill="#5A6469"></path>
<path d="M186.861 423.404L186.861 557.084L177.22 557.084L177.22 423.404L186.861 423.404Z" fill="#5A6469"></path>
<path d="M256.705 423.404L256.705 557.084L235.149 557.084L235.149 423.404L256.705 423.404Z" fill="#808D94"></path>
<path d="M244.79 423.404L244.79 557.084L235.15 557.084L235.15 423.404L244.79 423.404Z" fill="#5A6469"></path>
<path d="M274.483 423.404L274.483 557.084L252.928 557.084L252.928 423.404L274.483 423.404Z" fill="#808D94"></path>
<path d="M262.568 423.404L262.568 557.084L252.927 557.084L252.927 423.404L262.568 423.404Z" fill="#5A6469"></path>
<path d="M185.292 443.003C175.857 445.531 166.16 439.933 163.632 430.498L118.62 262.511C116.092 253.077 121.691 243.379 131.125 240.851C140.56 238.323 150.257 243.922 152.785 253.357L197.797 421.343C200.325 430.778 194.726 440.476 185.292 443.003Z" fill="#5A6469"></path>
<path fill-rule="evenodd" clip-rule="evenodd" d="M344.066 484.223C347.508 484.035 350.451 486.673 350.638 490.114L353.401 540.716C353.588 544.157 350.951 547.1 347.509 547.288C344.067 547.476 341.125 544.838 340.937 541.396L338.175 490.795C337.987 487.353 340.625 484.41 344.066 484.223Z" fill="#D69962"></path>
<path d="M241.925 178.743L291.179 183.234C291.179 183.234 291.15 214.357 290.251 237.577C266.139 246.092 237.726 214.604 237.726 214.604L241.925 178.743Z" fill="#FFB877"></path>
<path fill-rule="evenodd" clip-rule="evenodd" d="M390.668 492.06C394.18 490.793 398.055 492.614 399.322 496.127L416.013 542.406C417.28 545.918 415.459 549.793 411.946 551.06C408.434 552.327 404.559 550.506 403.292 546.994L386.601 500.714C385.334 497.202 387.155 493.327 390.668 492.06Z" fill="#FFB877"></path>
<path fill-rule="evenodd" clip-rule="evenodd" d="M290.353 202.314C290.919 202.214 291.458 202.592 291.558 203.157C292.007 205.704 293.463 207.53 294.841 208.976C295.066 209.212 295.304 209.452 295.538 209.689C295.972 210.127 296.392 210.551 296.693 210.911C296.935 211.201 297.183 211.541 297.333 211.917C297.493 212.318 297.562 212.822 297.338 213.337C297.052 213.99 296.46 214.51 295.928 214.893C295.363 215.301 294.702 215.667 294.094 215.968C293.48 216.272 292.893 216.524 292.461 216.699C292.244 216.787 292.064 216.856 291.938 216.904C291.875 216.928 291.825 216.946 291.79 216.959L291.749 216.974L291.738 216.978L291.733 216.98C291.733 216.98 291.732 216.98 291.383 216L291.733 216.98C291.192 217.173 290.596 216.89 290.403 216.349C290.21 215.808 290.493 215.213 291.034 215.02C291.034 215.02 291.034 215.02 291.034 215.02L291.035 215.02L291.042 215.017L291.074 215.006C291.103 214.995 291.146 214.979 291.203 214.958C291.316 214.915 291.48 214.852 291.68 214.771C292.08 214.608 292.617 214.378 293.17 214.104C293.728 213.828 294.276 213.52 294.712 213.206C295.065 212.951 295.265 212.748 295.364 212.614C295.32 212.534 295.238 212.415 295.097 212.245C294.846 211.945 294.537 211.635 294.16 211.254C293.915 211.008 293.641 210.732 293.335 210.412C291.872 208.877 290.067 206.68 289.509 203.519C289.41 202.953 289.787 202.414 290.353 202.314Z" fill="#C4B6FF"></path>
<path fill-rule="evenodd" clip-rule="evenodd" d="M250.086 393.789C250.217 384.125 258.158 376.398 267.822 376.529C280.572 376.702 301.325 379.253 319.266 383.523C328.202 385.649 337.369 388.416 344.794 391.971C348.478 393.735 352.506 396.054 355.953 399.147C359.289 402.14 363.629 407.273 364.636 414.721C365.762 423.051 365.903 440.332 365.772 457.217C365.636 474.735 365.172 493.698 364.786 506.516C364.495 516.177 356.427 523.773 346.767 523.482C337.106 523.191 329.511 515.123 329.802 505.463C330.183 492.786 330.64 474.106 330.773 456.945C330.882 442.859 330.753 430.879 330.339 423.864C330.132 423.759 329.913 423.651 329.678 423.539C325.513 421.544 319.101 419.461 311.162 417.572C295.353 413.809 277.173 411.659 267.346 411.526C257.682 411.394 249.954 403.453 250.086 393.789Z" fill="#C4B6FF"></path>
<path d="M233.242 255.691C238.494 245.886 247.629 222.312 246.206 214.104L261.089 222.859C264.81 225.886 271.573 232.554 268.859 235.006C266.145 237.457 272.018 257.74 273.368 261.57L258.791 258.862C251.642 260.321 227.989 265.496 233.242 255.691Z" fill="#FFB877"></path>
<path d="M258.526 232.509C258.526 232.509 265.932 235.29 268.462 236.355C267.752 238.309 270.322 250.011 270.825 252.882C270.825 252.882 260.908 237.511 258.526 232.509Z" fill="#C4B6FF"></path>
<path fill-rule="evenodd" clip-rule="evenodd" d="M290.602 227.193C285.594 227.076 283.192 223.568 282.8 221.753L284.833 221.314C285.044 222.289 286.703 225.021 290.651 225.113L290.602 227.193Z" fill="#C4B6FF"></path>
<path d="M272.778 190.345L260.558 188.848C258.085 191.612 259.942 199.222 262.046 204.349L253.27 205.525C252.179 200.069 247.06 194.9 242.878 199.81C238.695 204.721 249.673 213.938 251.674 220.485C253.674 227.032 246.151 228.969 242.878 229.697C239.604 230.424 224.146 235.094 225.055 224.91C225.964 214.726 227.056 196.416 225.055 183.14C223.455 172.519 231.541 173.016 235.785 174.592C235.58 174.378 235.818 173.698 236.38 172.691C239.407 158.88 247.306 136.064 254.776 134.924C258.502 134.356 261.152 137.747 262.972 142.419C272.284 135.608 282.386 133.085 291.008 143.77C292.205 145.252 293.051 147.244 293.624 149.565C295.523 149.29 297.403 149.804 299.173 151.425C307.202 158.773 296.206 179.424 291.008 187.782C291.008 187.782 283.993 191.194 272.778 190.345Z" fill="#C4B6FF"></path>
<path d="M340.654 539.569C340.654 539.569 348.383 543.807 353.498 537.454C368.486 545.336 393.253 550.465 393.151 554.698C393.048 558.931 351.082 557.054 341.487 555.792C337.664 551.199 340.654 539.569 340.654 539.569Z" fill="#C4B6FF"></path>
<path fill-rule="evenodd" clip-rule="evenodd" d="M265.599 297.353C270.622 293.062 278.173 293.656 282.464 298.679L306.184 326.449L355.52 304.273C361.546 301.564 368.626 304.254 371.335 310.279C374.043 316.305 371.354 323.386 365.328 326.094L299.638 355.622L264.272 314.218C259.981 309.195 260.575 301.644 265.599 297.353Z" fill="#D69962"></path>
<path fill-rule="evenodd" clip-rule="evenodd" d="M281.993 289.961C287.235 285.483 295.114 286.103 299.591 291.345L323.038 318.795L368.531 298.171C374.81 295.325 382.207 298.107 385.054 304.386C387.9 310.665 385.118 318.062 378.839 320.909L316.248 349.283L280.609 307.559C276.131 302.317 276.751 294.438 281.993 289.961Z" fill="#FFB877"></path>
<path d="M294.572 316.302L276.029 335.608L266.884 310.46L274.758 293.948L294.572 316.302Z" fill="#B5CDFB"></path>
<path d="M409.346 304.266C396.78 295.639 382.609 292.355 369.164 297.881C360.166 301.58 365.75 312.364 368.593 322.788H389.496C386.37 320.287 385.843 315.758 394.659 316.321C396.799 316.457 403.016 320.756 404.657 322.788H424.585C424.742 320.209 421.913 312.894 409.346 304.266Z" fill="#FFB877"></path>
<path d="M400 539.389C400 539.389 409.146 547.142 414.798 539.389C432.852 547.806 460.464 551.938 460.582 556.917C460.699 561.897 412.326 560.837 400.982 559.895C396.232 554.714 400 539.389 400 539.389Z" fill="#C4B6FF"></path>
<path fill-rule="evenodd" clip-rule="evenodd" d="M212.786 370.554L235.642 370.554C257.183 370.554 284.725 370.559 308.508 372.375C320.365 373.28 332.04 374.684 341.944 376.99C346.904 378.145 351.936 379.641 356.554 381.674C360.975 383.62 366.353 386.63 370.724 391.487C375.75 397.071 380.261 404.766 384.089 412.246C388.115 420.112 392.153 429.286 395.964 438.868C403.571 458 410.694 479.834 415.262 498.106C418.119 509.531 411.172 521.109 399.747 523.965C388.322 526.821 376.744 519.875 373.888 508.449C369.825 492.199 363.312 472.175 356.334 454.627C352.851 445.869 349.36 437.997 346.125 431.676C343.26 426.079 341.059 422.623 339.718 420.865C339.618 420.818 339.504 420.765 339.375 420.709C337.979 420.094 335.681 419.32 332.274 418.527C325.443 416.937 316.231 415.736 305.262 414.899C283.395 413.23 257.534 413.202 235.642 413.202C223.743 413.202 213.979 403.783 213.552 391.892L212.786 370.554ZM340.304 421.173C340.304 421.173 340.29 421.165 340.263 421.147C340.292 421.164 340.304 421.173 340.304 421.173Z" fill="#7D55FF"></path>
<path d="M207.335 384.205C206.413 370.113 182.918 304.353 225.167 259.262C238.588 244.938 258.953 252.506 287.017 268.745C318.244 303.747 321.668 309.918 321.668 309.918L294.139 331.045L278.049 312.003L282.142 371.371L207.335 384.205Z" fill="#C4B6FF"></path>
<path d="M157.985 429.381C157.985 420.088 165.519 412.554 174.812 412.554H278.758C288.051 412.554 295.584 420.088 295.584 429.381C295.584 438.674 288.051 446.208 278.758 446.208H174.812C165.519 446.208 157.985 438.674 157.985 429.381Z" fill="#5A6469"></path>
</svg>